<svg width="17" height="29" viewBox="0 0 17 29" fill="none" xmlns="http://www.w3.org/2000/svg">
<path d="M16.8563 13.56C16.9523 13.752 17.0003 14.104 17.0003 14.616C17.0003 15.096 16.9523 15.528 16.8563 15.912C16.6003 16.168 15.0963 17.576 12.3443 20.136C9.59231 22.696 7.89631 24.248 7.25631 24.792C5.84831 26.008 4.29631 27.192 2.60031 28.344L0.680313 26.232C6.76031 20.344 10.0723 17.144 10.6163 16.632C11.1923 16.12 11.9923 15.448 13.0163 14.616C12.6323 14.328 12.0883 13.864 11.3843 13.224L0.680313 2.952L2.60031 0.839999C4.36031 1.96 5.72031 2.968 6.68031 3.864C7.67231 4.76 9.52831 6.52 12.2483 9.144C15.0003 11.768 16.5363 13.24 16.8563 13.56Z" fill="#FFAA00"/>
</svg>
