<svg width="17" height="29" viewBox="0 0 17 29" fill="none" xmlns="http://www.w3.org/2000/svg">
<path d="M0.25825 15.912C0.16225 15.528 0.11425 15.096 0.11425 14.616C0.11425 14.104 0.16225 13.752 0.25825 13.56C0.57825 13.24 2.09825 11.768 4.81825 9.144C7.57025 6.52 9.25025 4.92 9.85825 4.344C10.9783 3.352 12.5303 2.184 14.5143 0.839999L16.4343 2.952C10.3543 8.84 6.86625 12.184 5.97025 12.984C5.10625 13.784 4.48225 14.328 4.09825 14.616C5.12225 15.448 5.66625 15.896 5.73025 15.96L16.4343 26.232L14.5143 28.344C12.7863 27.192 11.4103 26.184 10.3863 25.32C9.39425 24.424 7.52225 22.696 4.77025 20.136C2.01825 17.576 0.51425 16.168 0.25825 15.912Z" fill="#FFAA00"/>
</svg>
